<svg id="Ebene_1" data-name="Ebene 1" xmlns="http://www.w3.org/2000/svg" viewBox="0 0 32 32"><defs><style>.cls-1{fill:#FFFFFF;}</style></defs><title>grid</title><path class="cls-1" d="M16,2,14,4.11v1L5.94,6.93v3.13l1.06,0v-1h7v2l-11,2v3.21l0,.78H5v-1h8L9,30h2l2-3h6l2,3h2L19,16.06h8v1h2l0-.78V13.06l-11-2v-2h7v1h1v-1L25.92,7,18,5.1v-1ZM6.9,15.28,4.74,13.76l3.61-.7L7.06,15.28Zm2-2,1.93,2H7.77Zm.42-.41L13.89,12l-2.63,2.84ZM8.82,8,7.53,7.66l2.05-.41L8.92,8Zm4.36-1.48L11.79,8l-1-1ZM6.92,8V7.88l1,.14Zm3.32-.7,1.07.7H9.61Zm2,.7,1.79-1.51L14,8Zm-8,6.12,1.62,1.14H4.32Zm7.34,1.14,2.22-2.37-.68,2.37Zm13.28,0-1.29-2.22,3.61.7L25.1,15.28Zm-1.87-2,1.16,2H21.14Zm-2.33,1.57L18.17,12l4.48.86ZM23.08,8l-.66-.77,2,.41L23.18,8ZM18,6.51,19.72,8H18.05Zm.83,0L21.24,7l-1,1ZM20.69,8l1.07-.7.63.7Zm3.38,0,1-.14V8Zm-5.88,4.89,2.15,2.37H18.8Zm7.87,2.37,1.62-1.14v1.14ZM18,23H14l2-6Z"/></svg>