<svg id="767df4f6-83a9-45c3-aae9-5ef2ae17dae2" data-name="Ebene 1" xmlns="http://www.w3.org/2000/svg" viewBox="0 0 110 124.47"><defs><style>.\37 c80a6a1-eb93-4d86-bbc0-2926e78cae9a{fill:#fff;fill-rule:evenodd;}.\36 e0b64c7-6776-46d0-b84c-87c3de0f1d9f{fill:#e2001a;}</style></defs><title>inverter-white-4quadranten-01</title><path class="7c80a6a1-eb93-4d86-bbc0-2926e78cae9a" d="M81.86,89.56V93.2c0,2.74-1.35,4.55-3.61,4.84l-1.1.15a131.51,131.51,0,0,1-19.9,1.22,139,139,0,0,1-20.72-1.27L35.79,98c-2.43-.31-5.13-2.38-5.13-4.84V89.56h-8.8v1.37c0,14.18,2.5,16,33.77,16s34.23-1.89,34.23-16.07V89.56h-8Z"/><path class="7c80a6a1-eb93-4d86-bbc0-2926e78cae9a" d="M36,96.45l0.74,0.1A137.67,137.67,0,0,0,57.25,97.8a130.12,130.12,0,0,0,19.69-1.2L78,96.45c1.93-.25,2.22-2.15,2.22-3.25V89.56h-48V93.2C32.26,94.76,34.27,96.23,36,96.45Z"/><polygon class="7c80a6a1-eb93-4d86-bbc0-2926e78cae9a" points="81.86 19.71 81.86 87.96 89.86 87.96 89.86 27.75 81.86 19.71"/><polygon class="7c80a6a1-eb93-4d86-bbc0-2926e78cae9a" points="30.66 19.36 21.86 27.75 21.86 87.96 30.66 87.96 30.66 19.36"/><path class="7c80a6a1-eb93-4d86-bbc0-2926e78cae9a" d="M56.14,17.48c-12.68,0-21.37.74-23.88,1V88h48V18.84A196.49,196.49,0,0,0,56.14,17.48ZM49.47,81.86a1.65,1.65,0,0,1-1.65,1.65H36.94a1.65,1.65,0,0,1-1.65-1.65V74.4a1.65,1.65,0,0,1,1.65-1.65H47.82a1.65,1.65,0,0,1,1.65,1.65v7.46Zm7.34-25.92c-5.44,0-9.85-1.23-9.85-2.73s4.41-2.74,9.85-2.74,9.86,1.23,9.86,2.74S62.25,55.94,56.81,55.94Z"/><ellipse class="6e0b64c7-6776-46d0-b84c-87c3de0f1d9f" cx="56.81" cy="53.2" rx="9.86" ry="2.74"/></svg>