<?xml version="1.0" encoding="utf-8"?>
<!-- Generator: Adobe Illustrator 22.1.0, SVG Export Plug-In . SVG Version: 6.00 Build 0)  -->
<svg version="1.1" id="Ebene_1" xmlns="http://www.w3.org/2000/svg" xmlns:xlink="http://www.w3.org/1999/xlink" x="0px" y="0px"
	 viewBox="0 0 32 32" style="enable-background:new 0 0 32 32;" xml:space="preserve">
<style type="text/css">
	.st0{fill:#FFFFFF;}
</style>
<title>production</title>
<path class="st0" d="M15.6,0L15.6,0c0.4,0,0.7,0.3,0.7,0.7V3c0,0.4-0.3,0.7-0.7,0.7h0c-0.4,0-0.7-0.3-0.7-0.7V0.7
	C14.9,0.3,15.2,0,15.6,0z"/>
<path class="st0" d="M20.1,4.6L20.1,4.6c0.3,0.2,0.7,0.1,0.9-0.2l1.3-2c0.2-0.3,0.1-0.7-0.3-0.9l0,0c-0.3-0.2-0.7-0.1-0.9,0.2
	c0,0,0,0,0,0l-1.3,2C19.6,4,19.8,4.4,20.1,4.6z"/>
<path class="st0" d="M23,7.4c0.1,0.4,0.5,0.6,0.9,0.4l2.2-0.7c0.4-0.1,0.6-0.5,0.5-0.8c0,0,0,0,0,0l0,0C26.4,6,26,5.8,25.7,5.9
	c0,0,0,0,0,0l-2.2,0.7C23.1,6.7,22.9,7.1,23,7.4C23,7.4,23,7.4,23,7.4z"/>
<path class="st0" d="M5.6,7.2l2.2,0.7C8.2,8,8.6,7.8,8.7,7.4c0,0,0,0,0,0l0,0c0.1-0.4-0.1-0.7-0.4-0.8c0,0,0,0,0,0L6,5.9
	C5.6,5.8,5.3,6,5.2,6.3c0,0,0,0,0,0l0,0C5,6.7,5.2,7.1,5.6,7.2C5.6,7.2,5.6,7.2,5.6,7.2z"/>
<path class="st0" d="M10.5,4.5c0.2,0.3,0.6,0.4,0.9,0.2l0,0c0.3-0.2,0.4-0.6,0.2-0.9l-1.3-1.9c-0.2-0.3-0.6-0.4-0.9-0.2c0,0,0,0,0,0
	l0,0C9.1,1.8,9,2.2,9.2,2.5c0,0,0,0,0,0L10.5,4.5z"/>
<path class="st0" d="M15.8,5.7c-2.9,0-5.4,1.7-6.6,4.4h13.2C21.2,7.4,18.6,5.7,15.8,5.7z"/>
<rect x="13" y="21.1" class="st0" width="6" height="3"/>
<polygon class="st0" points="20,21.1 20,24.1 26,24.1 25.6,21.1 "/>
<polygon class="st0" points="6,24.1 12,24.1 12,21.1 6.4,21.1 "/>
<rect x="13" y="17.1" class="st0" width="6" height="3"/>
<polygon class="st0" points="25.1,17.1 20,17.1 20,20.1 25.5,20.1 "/>
<polygon class="st0" points="6.5,20.1 12,20.1 12,17.1 6.9,17.1 "/>
<rect x="13" y="13.1" class="st0" width="6" height="3"/>
<polygon class="st0" points="24.5,13.1 20,13.1 20,16.1 24.9,16.1 "/>
<polygon class="st0" points="7.1,16.1 12,16.1 12,13.1 7.5,13.1 "/>
<path class="st0" d="M27,11.1H5L3,26.1h2V28h22.1v-1.9h2L27,11.1z M4,25.1l1.8-13.1h20.3l1.8,13.1H4z"/>
</svg>
